<?xml version="1.0" encoding="UTF-8" standalone="no"?>
<!DOCTYPE svg PUBLIC "-//W3C//DTD SVG 1.1//EN"
 "http://www.w3.org/Graphics/SVG/1.1/DTD/svg11.dtd">
<!-- Generated by graphviz version 12.0.0 (20240704.0754)
 -->
<!-- Title: classes_stixd Pages: 1 -->
<svg width="2147pt" height="539pt"
 viewBox="0.00 0.00 2147.25 539.00" xmlns="http://www.w3.org/2000/svg" xmlns:xlink="http://www.w3.org/1999/xlink">
<g id="graph0" class="graph" transform="scale(1 1) rotate(0) translate(4 535)">
<title>classes_stixd</title>
<polygon fill="white" stroke="none" points="-4,4 -4,-535 2143.25,-535 2143.25,4 -4,4"/>
<!-- ling508.app.clex_importer.ClexImporter -->
<g id="node1" class="node">
<title>ling508.app.clex_importer.ClexImporter</title>
<polygon fill="none" stroke="black" points="0,-249.12 0,-336.12 239.5,-336.12 239.5,-249.12 0,-249.12"/>
<text text-anchor="start" x="8" y="-318.82" font-family="Times New Roman,serif" font-size="14.00">ling508.app.clex_importer.ClexImporter</text>
<polyline fill="none" stroke="black" points="0,-312.38 239.5,-312.38"/>
<text text-anchor="start" x="68.38" y="-295.07" font-family="Times New Roman,serif" font-size="14.00">clex_file_path : str</text>
<text text-anchor="start" x="68.38" y="-279.32" font-family="Times New Roman,serif" font-size="14.00">db_repo</text>
<polyline fill="none" stroke="black" points="0,-272.88 239.5,-272.88"/>
<text text-anchor="start" x="32" y="-255.57" font-family="Times New Roman,serif" font-size="14.00">import_clex_entries(uri: str): str</text>
</g>
<!-- ling508.app.stix_importer.StixImporter -->
<g id="node2" class="node">
<title>ling508.app.stix_importer.StixImporter</title>
<polygon fill="none" stroke="black" points="492.25,-417.25 492.25,-530.5 733.25,-530.5 733.25,-417.25 492.25,-417.25"/>
<text text-anchor="start" x="504.38" y="-513.2" font-family="Times New Roman,serif" font-size="14.00">ling508.app.stix_importer.StixImporter</text>
<polyline fill="none" stroke="black" points="492.25,-506.75 733.25,-506.75"/>
<text text-anchor="start" x="574.88" y="-489.45" font-family="Times New Roman,serif" font-size="14.00">db_repo</text>
<text text-anchor="start" x="574.88" y="-473.7" font-family="Times New Roman,serif" font-size="14.00">doc_manager</text>
<polyline fill="none" stroke="black" points="492.25,-467.25 733.25,-467.25"/>
<text text-anchor="start" x="500.25" y="-450.95" font-family="Times New Roman,serif" font-size="14.00">import_stix_objects(json_files: List[str])</text>
<text text-anchor="start" x="500.25" y="-436.95" font-family="Times New Roman,serif" font-style="italic" font-size="14.00">read_json</text>
<text text-anchor="start" x="557.25" y="-436.95" font-family="Times New Roman,serif" font-size="14.00">(file: str): Dict</text>
<text text-anchor="start" x="500.25" y="-422.95" font-family="Times New Roman,serif" font-size="14.00">save_to_db(stix_object: Dict)</text>
</g>
<!-- ling508.db.mysql_repository.MySQLRepository -->
<g id="node3" class="node">
<title>ling508.db.mysql_repository.MySQLRepository</title>
<polygon fill="none" stroke="black" points="590.88,-0.5 590.88,-168 958.62,-168 958.62,-0.5 590.88,-0.5"/>
<text text-anchor="start" x="638.62" y="-150.7" font-family="Times New Roman,serif" font-size="14.00">ling508.db.mysql_repository.MySQLRepository</text>
<polyline fill="none" stroke="black" points="590.88,-144.25 958.62,-144.25"/>
<text text-anchor="start" x="704.25" y="-126.95" font-family="Times New Roman,serif" font-size="14.00">connection_params : dict</text>
<polyline fill="none" stroke="black" points="590.88,-120.5 958.62,-120.5"/>
<text text-anchor="start" x="598.88" y="-104.2" font-family="Times New Roman,serif" font-size="14.00">find_entry_by_id(tag_form_hash: str): Optional[Dict[str, Any]]</text>
<text text-anchor="start" x="598.88" y="-90.2" font-family="Times New Roman,serif" font-size="14.00">find_stix_object_by_id(obj_id: str): Optional[Dict[str, Any]]</text>
<text text-anchor="start" x="598.88" y="-76.2" font-family="Times New Roman,serif" font-size="14.00">get_last_insert_id(): int</text>
<text text-anchor="start" x="598.88" y="-62.2" font-family="Times New Roman,serif" font-size="14.00">link_entry_with_stix(lex_id: int, stix_uuid: str): None</text>
<text text-anchor="start" x="598.88" y="-48.2" font-family="Times New Roman,serif" font-style="italic" font-size="14.00">link_existing_entry</text>
<text text-anchor="start" x="706.88" y="-48.2" font-family="Times New Roman,serif" font-size="14.00">(tag_form_hash: str): None</text>
<text text-anchor="start" x="598.88" y="-34.2" font-family="Times New Roman,serif" font-size="14.00">load_entries(): List[Dict[str, Any]]</text>
<text text-anchor="start" x="598.88" y="-20.2" font-family="Times New Roman,serif" font-size="14.00">save_entry(entry: Dict[str, Any]): None</text>
<text text-anchor="start" x="598.88" y="-6.2" font-family="Times New Roman,serif" font-size="14.00">save_stix_object(stix_object: Dict[str, Any]): None</text>
</g>
<!-- ling508.db.mysql_repository.MySQLRepository&#45;&gt;ling508.app.clex_importer.ClexImporter -->
<g id="edge2" class="edge">
<title>ling508.db.mysql_repository.MySQLRepository&#45;&gt;ling508.app.clex_importer.ClexImporter</title>
<path fill="none" stroke="black" d="M590.58,-120.21C487.67,-142.75 358.28,-176.14 247.75,-220.25 231.87,-226.59 215.51,-234.51 200.01,-242.76"/>
<polygon fill="none" stroke="black" points="200.24,-242.64 196.88,-249.02 189.69,-248.37 193.05,-241.99 200.24,-242.64"/>
<text text-anchor="middle" x="355.75" y="-188.95" font-family="Times New Roman,serif" font-size="14.00" fill="green">db_repo</text>
</g>
<!-- ling508.db.repository.AbstractRepository -->
<g id="node4" class="node">
<title>ling508.db.repository.AbstractRepository</title>
<polygon fill="none" stroke="black" points="257.12,-220.75 257.12,-364.5 626.38,-364.5 626.38,-220.75 257.12,-220.75"/>
<text text-anchor="start" x="325.12" y="-347.2" font-family="Times New Roman,serif" font-size="14.00">ling508.db.repository.AbstractRepository</text>
<polyline fill="none" stroke="black" points="257.12,-340.75 626.38,-340.75"/>
<polyline fill="none" stroke="black" points="257.12,-340.75 626.38,-340.75"/>
<text text-anchor="start" x="265.12" y="-324.45" font-family="Times New Roman,serif" font-style="italic" font-size="14.00">find_entry_by_id</text>
<text text-anchor="start" x="363.38" y="-324.45" font-family="Times New Roman,serif" font-size="14.00">(tag_form_hash: str): Optional[Dict[str, Any]]</text>
<text text-anchor="start" x="265.12" y="-310.45" font-family="Times New Roman,serif" font-style="italic" font-size="14.00">find_stix_object_by_id</text>
<text text-anchor="start" x="394.88" y="-310.45" font-family="Times New Roman,serif" font-size="14.00">(obj_id: str): Optional[Dict[str, Any]]</text>
<text text-anchor="start" x="265.12" y="-296.45" font-family="Times New Roman,serif" font-style="italic" font-size="14.00">get_last_insert_id</text>
<text text-anchor="start" x="367.88" y="-296.45" font-family="Times New Roman,serif" font-size="14.00">(): int</text>
<text text-anchor="start" x="265.12" y="-282.45" font-family="Times New Roman,serif" font-style="italic" font-size="14.00">link_entry_with_stix</text>
<text text-anchor="start" x="380.62" y="-282.45" font-family="Times New Roman,serif" font-size="14.00">(lex_id: int, stix_uuid: str): None</text>
<text text-anchor="start" x="265.12" y="-268.45" font-family="Times New Roman,serif" font-style="italic" font-size="14.00">link_existing_entry</text>
<text text-anchor="start" x="373.12" y="-268.45" font-family="Times New Roman,serif" font-size="14.00">(tag_form_hash: str): None</text>
<text text-anchor="start" x="265.12" y="-254.45" font-family="Times New Roman,serif" font-style="italic" font-size="14.00">load_entries</text>
<text text-anchor="start" x="335.62" y="-254.45" font-family="Times New Roman,serif" font-size="14.00">(): List[Dict[str, Any]]</text>
<text text-anchor="start" x="265.12" y="-240.45" font-family="Times New Roman,serif" font-style="italic" font-size="14.00">save_entry</text>
<text text-anchor="start" x="325.88" y="-240.45" font-family="Times New Roman,serif" font-size="14.00">(entry: Dict[str, Any]): None</text>
<text text-anchor="start" x="265.12" y="-226.45" font-family="Times New Roman,serif" font-style="italic" font-size="14.00">save_stix_object</text>
<text text-anchor="start" x="357.38" y="-226.45" font-family="Times New Roman,serif" font-size="14.00">(stix_object: Dict[str, Any]): None</text>
</g>
<!-- ling508.db.mysql_repository.MySQLRepository&#45;&gt;ling508.db.repository.AbstractRepository -->
<g id="edge1" class="edge">
<title>ling508.db.mysql_repository.MySQLRepository&#45;&gt;ling508.db.repository.AbstractRepository</title>
<path fill="none" stroke="black" d="M640.75,-168.3C616.18,-183.53 590.62,-199.36 566.34,-214.41"/>
<polygon fill="none" stroke="black" points="564.69,-211.32 558.03,-219.56 568.38,-217.27 564.69,-211.32"/>
</g>
<!-- ling508.model.doc_manager.DocumentManager -->
<g id="node5" class="node">
<title>ling508.model.doc_manager.DocumentManager</title>
<polygon fill="none" stroke="black" points="644.25,-233.38 644.25,-351.88 927.25,-351.88 927.25,-233.38 644.25,-233.38"/>
<text text-anchor="start" x="652.25" y="-334.57" font-family="Times New Roman,serif" font-size="14.00">ling508.model.doc_manager.DocumentManager</text>
<polyline fill="none" stroke="black" points="644.25,-328.12 927.25,-328.12"/>
<text text-anchor="start" x="745.25" y="-310.82" font-family="Times New Roman,serif" font-size="14.00">db_repo</text>
<text text-anchor="start" x="745.25" y="-295.07" font-family="Times New Roman,serif" font-size="14.00">nlp_processor</text>
<polyline fill="none" stroke="black" points="644.25,-288.62 927.25,-288.62"/>
<text text-anchor="start" x="677" y="-271.32" font-family="Times New Roman,serif" font-size="14.00">create_document(stix_object: Dict): int</text>
<text text-anchor="start" x="677" y="-255.57" font-family="Times New Roman,serif" font-size="14.00">link_document(stix_id: str, doc_id: int)</text>
<text text-anchor="start" x="677" y="-239.82" font-family="Times New Roman,serif" font-size="14.00">process_document_text(doc_id: int)</text>
</g>
<!-- ling508.db.mysql_repository.MySQLRepository&#45;&gt;ling508.model.doc_manager.DocumentManager -->
<g id="edge3" class="edge">
<title>ling508.db.mysql_repository.MySQLRepository&#45;&gt;ling508.model.doc_manager.DocumentManager</title>
<path fill="none" stroke="black" d="M778.96,-168.34C779.56,-179.74 780.16,-191.28 780.75,-202.25 781.07,-208.15 781.4,-214.26 781.74,-220.4"/>
<polygon fill="none" stroke="black" points="781.72,-220.09 786.04,-225.86 782.38,-232.07 778.06,-226.3 781.72,-220.09"/>
<text text-anchor="middle" x="804.75" y="-188.95" font-family="Times New Roman,serif" font-size="14.00" fill="green">db_repo</text>
</g>
<!-- ling508.model.lexicon_manager.LexiconManager -->
<g id="node6" class="node">
<title>ling508.model.lexicon_manager.LexiconManager</title>
<polygon fill="none" stroke="black" points="945.62,-233.38 945.62,-351.88 1233.88,-351.88 1233.88,-233.38 945.62,-233.38"/>
<text text-anchor="start" x="953.62" y="-334.57" font-family="Times New Roman,serif" font-size="14.00">ling508.model.lexicon_manager.LexiconManager</text>
<polyline fill="none" stroke="black" points="945.62,-328.12 1233.88,-328.12"/>
<text text-anchor="start" x="1049.25" y="-310.82" font-family="Times New Roman,serif" font-size="14.00">db_repo</text>
<text text-anchor="start" x="1049.25" y="-295.07" font-family="Times New Roman,serif" font-size="14.00">nlp_processor</text>
<polyline fill="none" stroke="black" points="945.62,-288.62 1233.88,-288.62"/>
<text text-anchor="start" x="958.12" y="-271.32" font-family="Times New Roman,serif" font-size="14.00">create_lexicon_entry(sent_id: int, word: str): int</text>
<text text-anchor="start" x="958.12" y="-255.57" font-family="Times New Roman,serif" font-size="14.00">link_lexicon_entry(sent_id: int, lex_id: int)</text>
<text text-anchor="start" x="958.12" y="-239.82" font-family="Times New Roman,serif" font-size="14.00">process_word(word: str)</text>
</g>
<!-- ling508.db.mysql_repository.MySQLRepository&#45;&gt;ling508.model.lexicon_manager.LexiconManager -->
<g id="edge4" class="edge">
<title>ling508.db.mysql_repository.MySQLRepository&#45;&gt;ling508.model.lexicon_manager.LexiconManager</title>
<path fill="none" stroke="black" d="M817.35,-168.28C827.13,-181.23 838.59,-193.27 851.75,-202.25 883.65,-224.01 900.13,-208.01 936.75,-220.25 944.05,-222.69 951.46,-225.38 958.89,-228.25"/>
<polygon fill="none" stroke="black" points="958.97,-228.28 966.02,-226.78 970.12,-232.71 963.07,-234.21 958.97,-228.28"/>
<text text-anchor="middle" x="875.75" y="-188.95" font-family="Times New Roman,serif" font-size="14.00" fill="green">db_repo</text>
</g>
<!-- ling508.model.sent_manager.SentenceManager -->
<g id="node8" class="node">
<title>ling508.model.sent_manager.SentenceManager</title>
<polygon fill="none" stroke="black" points="1251.62,-233.38 1251.62,-351.88 1527.88,-351.88 1527.88,-233.38 1251.62,-233.38"/>
<text text-anchor="start" x="1259.62" y="-334.57" font-family="Times New Roman,serif" font-size="14.00">ling508.model.sent_manager.SentenceManager</text>
<polyline fill="none" stroke="black" points="1251.62,-328.12 1527.88,-328.12"/>
<text text-anchor="start" x="1349.25" y="-310.82" font-family="Times New Roman,serif" font-size="14.00">db_repo</text>
<text text-anchor="start" x="1349.25" y="-295.07" font-family="Times New Roman,serif" font-size="14.00">nlp_processor</text>
<polyline fill="none" stroke="black" points="1251.62,-288.62 1527.88,-288.62"/>
<text text-anchor="start" x="1262.62" y="-271.32" font-family="Times New Roman,serif" font-size="14.00">create_sentence(doc_id: int, sentence: str): int</text>
<text text-anchor="start" x="1262.62" y="-255.57" font-family="Times New Roman,serif" font-size="14.00">link_sentence(doc_id: int, sent_id: int)</text>
<text text-anchor="start" x="1262.62" y="-239.82" font-family="Times New Roman,serif" font-size="14.00">process_sentence_text(sent_id: int)</text>
</g>
<!-- ling508.db.mysql_repository.MySQLRepository&#45;&gt;ling508.model.sent_manager.SentenceManager -->
<g id="edge5" class="edge">
<title>ling508.db.mysql_repository.MySQLRepository&#45;&gt;ling508.model.sent_manager.SentenceManager</title>
<path fill="none" stroke="black" d="M959.09,-165.47C975.22,-172.56 991.28,-179.64 1006.75,-186.5 1022.35,-193.41 1025.25,-197.93 1041.75,-202.25 1128.52,-224.97 1156.32,-196.27 1242.75,-220.25 1250.92,-222.52 1259.19,-225.23 1267.42,-228.25"/>
<polygon fill="none" stroke="black" points="1267.4,-228.24 1274.44,-226.67 1278.6,-232.56 1271.56,-234.13 1267.4,-228.24"/>
<text text-anchor="middle" x="1065.75" y="-188.95" font-family="Times New Roman,serif" font-size="14.00" fill="green">db_repo</text>
</g>
<!-- ling508.db.repository.AbstractRepository&#45;&gt;ling508.app.stix_importer.StixImporter -->
<g id="edge6" class="edge">
<title>ling508.db.repository.AbstractRepository&#45;&gt;ling508.app.stix_importer.StixImporter</title>
<path fill="none" stroke="black" d="M509.83,-364.98C523.22,-379.02 537.21,-393.69 550.4,-407.52"/>
<polygon fill="none" stroke="black" points="550.49,-407.61 557.53,-409.19 558.77,-416.29 551.74,-414.71 550.49,-407.61"/>
<text text-anchor="middle" x="561.75" y="-385.45" font-family="Times New Roman,serif" font-size="14.00" fill="green">db_repo</text>
</g>
<!-- ling508.model.doc_manager.DocumentManager&#45;&gt;ling508.app.stix_importer.StixImporter -->
<g id="edge7" class="edge">
<title>ling508.model.doc_manager.DocumentManager&#45;&gt;ling508.app.stix_importer.StixImporter</title>
<path fill="none" stroke="black" d="M729.1,-352.32C712.07,-369.97 693.27,-389.44 675.85,-407.5"/>
<polygon fill="none" stroke="black" points="675.84,-407.51 674.55,-414.6 667.5,-416.14 668.79,-409.05 675.84,-407.51"/>
<text text-anchor="middle" x="736.62" y="-385.45" font-family="Times New Roman,serif" font-size="14.00" fill="green">doc_manager</text>
</g>
<!-- ling508.model.nlp_manager.NLPManager -->
<g id="node7" class="node">
<title>ling508.model.nlp_manager.NLPManager</title>
<polygon fill="none" stroke="black" points="976.25,-34.62 976.25,-133.88 1223.25,-133.88 1223.25,-34.62 976.25,-34.62"/>
<text text-anchor="start" x="984.25" y="-116.58" font-family="Times New Roman,serif" font-size="14.00">ling508.model.nlp_manager.NLPManager</text>
<polyline fill="none" stroke="black" points="976.25,-110.12 1223.25,-110.12"/>
<text text-anchor="start" x="1082.12" y="-92.83" font-family="Times New Roman,serif" font-size="14.00">config</text>
<text text-anchor="start" x="1082.12" y="-77.08" font-family="Times New Roman,serif" font-size="14.00">model</text>
<polyline fill="none" stroke="black" points="976.25,-70.62 1223.25,-70.62"/>
<text text-anchor="start" x="993.62" y="-54.33" font-family="Times New Roman,serif" font-style="italic" font-size="14.00">process_sentence</text>
<text text-anchor="start" x="1091.12" y="-54.33" font-family="Times New Roman,serif" font-size="14.00">(sentence: str): Dict</text>
<text text-anchor="start" x="993.62" y="-40.33" font-family="Times New Roman,serif" font-style="italic" font-size="14.00">process_text</text>
<text text-anchor="start" x="1062.62" y="-40.33" font-family="Times New Roman,serif" font-size="14.00">(text: str): Tuple[str, Dict]</text>
</g>
<!-- ling508.model.nlp_manager.NLPManager&#45;&gt;ling508.model.doc_manager.DocumentManager -->
<g id="edge8" class="edge">
<title>ling508.model.nlp_manager.NLPManager&#45;&gt;ling508.model.doc_manager.DocumentManager</title>
<path fill="none" stroke="black" d="M1026.61,-134.24C1007.78,-146.06 987.3,-158.23 967.75,-168.5 949.77,-177.95 943.33,-176.33 925.75,-186.5 913.83,-193.4 892.8,-208.58 870.62,-225.33"/>
<polygon fill="none" stroke="black" points="870.64,-225.31 868.28,-232.12 861.09,-232.56 863.45,-225.75 870.64,-225.31"/>
<text text-anchor="middle" x="966.25" y="-188.95" font-family="Times New Roman,serif" font-size="14.00" fill="green">nlp_processor</text>
</g>
<!-- ling508.model.nlp_manager.NLPManager&#45;&gt;ling508.model.lexicon_manager.LexiconManager -->
<g id="edge9" class="edge">
<title>ling508.model.nlp_manager.NLPManager&#45;&gt;ling508.model.lexicon_manager.LexiconManager</title>
<path fill="none" stroke="black" d="M1097.38,-134.16C1096.13,-159.9 1094.58,-191.93 1093.2,-220.38"/>
<polygon fill="none" stroke="black" points="1093.21,-220.27 1096.91,-226.46 1092.63,-232.26 1088.92,-226.07 1093.21,-220.27"/>
<text text-anchor="middle" x="1135.25" y="-188.95" font-family="Times New Roman,serif" font-size="14.00" fill="green">nlp_processor</text>
</g>
<!-- ling508.model.nlp_manager.NLPManager&#45;&gt;ling508.model.sent_manager.SentenceManager -->
<g id="edge10" class="edge">
<title>ling508.model.nlp_manager.NLPManager&#45;&gt;ling508.model.sent_manager.SentenceManager</title>
<path fill="none" stroke="black" d="M1168.48,-134.16C1206.85,-161.46 1255.18,-195.86 1296.88,-225.53"/>
<polygon fill="none" stroke="black" points="1296.81,-225.49 1304.02,-225.71 1306.59,-232.45 1299.38,-232.23 1296.81,-225.49"/>
<text text-anchor="middle" x="1302.25" y="-188.95" font-family="Times New Roman,serif" font-size="14.00" fill="green">nlp_processor</text>
</g>
<!-- ling508.tests.test_doc_scrapper.test_fetch_html.MockResponse -->
<g id="node9" class="node">
<title>ling508.tests.test_doc_scrapper.test_fetch_html.MockResponse</title>
<polygon fill="none" stroke="black" points="1241.75,-48.62 1241.75,-119.88 1527.75,-119.88 1527.75,-48.62 1241.75,-48.62"/>
<text text-anchor="start" x="1249.75" y="-102.58" font-family="Times New Roman,serif" font-size="14.00">ling508.tests.test_doc_scrapper.MockResponse</text>
<polyline fill="none" stroke="black" points="1241.75,-96.12 1527.75,-96.12"/>
<text text-anchor="start" x="1374.62" y="-78.83" font-family="Times New Roman,serif" font-size="14.00">text</text>
<polyline fill="none" stroke="black" points="1241.75,-72.38 1527.75,-72.38"/>
<text text-anchor="start" x="1334.5" y="-56.08" font-family="Times New Roman,serif" font-style="italic" font-size="14.00">raise_for_status</text>
<text text-anchor="start" x="1426" y="-56.08" font-family="Times New Roman,serif" font-size="14.00">()</text>
</g>
<!-- ling508.tests.test_doc_scrapper.test_process_url.MockResponse -->
<g id="node10" class="node">
<title>ling508.tests.test_doc_scrapper.test_process_url.MockResponse</title>
<polygon fill="none" stroke="black" points="1545.75,-48.62 1545.75,-119.88 1831.75,-119.88 1831.75,-48.62 1545.75,-48.62"/>
<text text-anchor="start" x="1553.75" y="-102.58" font-family="Times New Roman,serif" font-size="14.00">ling508.tests.test_doc_scrapper.MockResponse</text>
<polyline fill="none" stroke="black" points="1545.75,-96.12 1831.75,-96.12"/>
<text text-anchor="start" x="1678.62" y="-78.83" font-family="Times New Roman,serif" font-size="14.00">text</text>
<polyline fill="none" stroke="black" points="1545.75,-72.38 1831.75,-72.38"/>
<text text-anchor="start" x="1638.5" y="-56.08" font-family="Times New Roman,serif" font-style="italic" font-size="14.00">raise_for_status</text>
<text text-anchor="start" x="1730" y="-56.08" font-family="Times New Roman,serif" font-size="14.00">()</text>
</g>
<!-- ling508.tests.test_gen_clex_uuid.MockResponse -->
<g id="node11" class="node">
<title>ling508.tests.test_gen_clex_uuid.MockResponse</title>
<polygon fill="none" stroke="black" points="1850.25,-40.75 1850.25,-127.75 2139.25,-127.75 2139.25,-40.75 1850.25,-40.75"/>
<text text-anchor="start" x="1858.25" y="-110.45" font-family="Times New Roman,serif" font-size="14.00">ling508.tests.test_gen_clex_uuid.MockResponse</text>
<polyline fill="none" stroke="black" points="1850.25,-104 2139.25,-104"/>
<text text-anchor="start" x="1984.62" y="-86.7" font-family="Times New Roman,serif" font-size="14.00">text</text>
<text text-anchor="start" x="1984.62" y="-70.95" font-family="Times New Roman,serif" font-size="14.00">url</text>
<polyline fill="none" stroke="black" points="1850.25,-64.5 2139.25,-64.5"/>
<text text-anchor="start" x="1944.5" y="-48.2" font-family="Times New Roman,serif" font-style="italic" font-size="14.00">raise_for_status</text>
<text text-anchor="start" x="2036" y="-48.2" font-family="Times New Roman,serif" font-size="14.00">()</text>
</g>
</g>
</svg>
