<?xml version="1.0" encoding="UTF-8" standalone="no"?>
<!DOCTYPE svg PUBLIC "-//W3C//DTD SVG 1.1//EN"
 "http://www.w3.org/Graphics/SVG/1.1/DTD/svg11.dtd">
<!-- Generated by graphviz version 12.0.0 (20240704.0754)
 -->
<!-- Title: packages_stixd Pages: 1 -->
<svg width="2728pt" height="260pt"
 viewBox="0.00 0.00 2727.88 260.00" xmlns="http://www.w3.org/2000/svg" xmlns:xlink="http://www.w3.org/1999/xlink">
<g id="graph0" class="graph" transform="scale(1 1) rotate(0) translate(4 256)">
<title>packages_stixd</title>
<polygon fill="white" stroke="none" points="-4,4 -4,-256 2723.88,-256 2723.88,4 -4,4"/>
<!-- ling508 -->
<g id="node1" class="node">
<title>ling508</title>
<polygon fill="none" stroke="black" points="105.25,-36 49.5,-36 49.5,0 105.25,0 105.25,-36"/>
<text text-anchor="middle" x="77.38" y="-12.57" font-family="Times New Roman,serif" font-size="14.00">ling508</text>
</g>
<!-- ling508.api -->
<g id="node2" class="node">
<title>ling508.api</title>
<polygon fill="none" stroke="black" points="199.38,-36 123.38,-36 123.38,0 199.38,0 199.38,-36"/>
<text text-anchor="middle" x="161.38" y="-12.57" font-family="Times New Roman,serif" font-size="14.00">ling508.api</text>
</g>
<!-- ling508.app.clex_importer -->
<g id="node4" class="node">
<title>ling508.app.clex_importer</title>
<polygon fill="none" stroke="black" points="414.12,-108 252.62,-108 252.62,-72 414.12,-72 414.12,-108"/>
<text text-anchor="middle" x="333.38" y="-84.58" font-family="Times New Roman,serif" font-size="14.00">ling508.app.clex_importer</text>
</g>
<!-- ling508.api&#45;&gt;ling508.app.clex_importer -->
<g id="edge1" class="edge">
<title>ling508.api&#45;&gt;ling508.app.clex_importer</title>
<path fill="none" stroke="black" d="M199.55,-34.54C223.31,-44.21 254.22,-56.79 280.35,-67.42"/>
<polygon fill="black" stroke="black" points="289.34,-71.08 278.38,-71.48 285.84,-69.65 280.08,-67.31 280.08,-67.31 280.08,-67.31 285.84,-69.65 281.78,-63.14 289.34,-71.08"/>
</g>
<!-- ling508.db.mysql_repository -->
<g id="node11" class="node">
<title>ling508.db.mysql_repository</title>
<polygon fill="none" stroke="black" points="829.62,-180 653.12,-180 653.12,-144 829.62,-144 829.62,-180"/>
<text text-anchor="middle" x="741.38" y="-156.57" font-family="Times New Roman,serif" font-size="14.00">ling508.db.mysql_repository</text>
</g>
<!-- ling508.api&#45;&gt;ling508.db.mysql_repository -->
<g id="edge2" class="edge">
<title>ling508.api&#45;&gt;ling508.db.mysql_repository</title>
<path fill="none" stroke="black" d="M176.18,-36.34C197.41,-61.01 234.88,-103.73 243.38,-108 310.95,-142 516.72,-154.27 641.62,-158.64"/>
<polygon fill="black" stroke="black" points="651.48,-158.97 641.34,-163.13 647.7,-158.84 641.49,-158.63 641.49,-158.63 641.49,-158.63 647.7,-158.84 641.64,-154.13 651.48,-158.97"/>
</g>
<!-- ling508.app -->
<g id="node3" class="node">
<title>ling508.app</title>
<polygon fill="none" stroke="black" points="1788.62,-36 1708.12,-36 1708.12,0 1788.62,0 1788.62,-36"/>
<text text-anchor="middle" x="1748.38" y="-12.57" font-family="Times New Roman,serif" font-size="14.00">ling508.app</text>
</g>
<!-- ling508.app.gen_clex_uuid -->
<g id="node6" class="node">
<title>ling508.app.gen_clex_uuid</title>
<polygon fill="none" stroke="black" points="299,-180 133.75,-180 133.75,-144 299,-144 299,-180"/>
<text text-anchor="middle" x="216.38" y="-156.57" font-family="Times New Roman,serif" font-size="14.00">ling508.app.gen_clex_uuid</text>
</g>
<!-- ling508.app.clex_importer&#45;&gt;ling508.app.gen_clex_uuid -->
<g id="edge3" class="edge">
<title>ling508.app.clex_importer&#45;&gt;ling508.app.gen_clex_uuid</title>
<path fill="none" stroke="black" d="M304.15,-108.48C289.1,-117.49 270.57,-128.58 254.42,-138.24"/>
<polygon fill="black" stroke="black" points="246.27,-143.11 252.54,-134.12 249.52,-141.17 254.85,-137.98 254.85,-137.98 254.85,-137.98 249.52,-141.17 257.16,-141.84 246.27,-143.11"/>
</g>
<!-- ling508.app.clex_importer&#45;&gt;ling508.db.mysql_repository -->
<g id="edge4" class="edge">
<title>ling508.app.clex_importer&#45;&gt;ling508.db.mysql_repository</title>
<path fill="none" stroke="black" d="M414.47,-104.91C479.77,-116.12 571.84,-131.91 641.64,-143.89"/>
<polygon fill="black" stroke="black" points="651.45,-145.57 640.83,-148.32 647.72,-144.93 641.59,-143.88 641.59,-143.88 641.59,-143.88 647.72,-144.93 642.35,-139.45 651.45,-145.57"/>
</g>
<!-- ling508.app.doc_scrapper -->
<g id="node5" class="node">
<title>ling508.app.doc_scrapper</title>
<polygon fill="none" stroke="black" points="2044.5,-108 1882.25,-108 1882.25,-72 2044.5,-72 2044.5,-108"/>
<text text-anchor="middle" x="1963.38" y="-84.58" font-family="Times New Roman,serif" font-size="14.00">ling508.app.doc_scrapper</text>
</g>
<!-- ling508.app.gen_mock_uuids -->
<g id="node7" class="node">
<title>ling508.app.gen_mock_uuids</title>
<polygon fill="none" stroke="black" points="2258.5,-36 2078.25,-36 2078.25,0 2258.5,0 2258.5,-36"/>
<text text-anchor="middle" x="2168.38" y="-12.57" font-family="Times New Roman,serif" font-size="14.00">ling508.app.gen_mock_uuids</text>
</g>
<!-- ling508.app.gen_uuid -->
<g id="node8" class="node">
<title>ling508.app.gen_uuid</title>
<polygon fill="none" stroke="black" points="2412,-36 2276.75,-36 2276.75,0 2412,0 2412,-36"/>
<text text-anchor="middle" x="2344.38" y="-12.57" font-family="Times New Roman,serif" font-size="14.00">ling508.app.gen_uuid</text>
</g>
<!-- ling508.app.stix_importer -->
<g id="node9" class="node">
<title>ling508.app.stix_importer</title>
<polygon fill="none" stroke="black" points="824.62,-36 666.12,-36 666.12,0 824.62,0 824.62,-36"/>
<text text-anchor="middle" x="745.38" y="-12.57" font-family="Times New Roman,serif" font-size="14.00">ling508.app.stix_importer</text>
</g>
<!-- ling508.app.stix_importer&#45;&gt;ling508.db.mysql_repository -->
<g id="edge5" class="edge">
<title>ling508.app.stix_importer&#45;&gt;ling508.db.mysql_repository</title>
<path fill="none" stroke="black" d="M688.15,-36.42C671.42,-44.46 655.05,-55.92 645.38,-72 637.13,-85.71 637.24,-94.22 645.38,-108 652.97,-120.86 664.92,-130.82 677.85,-138.44"/>
<polygon fill="black" stroke="black" points="686.32,-143.01 675.38,-142.22 682.99,-141.22 677.52,-138.26 677.52,-138.26 677.52,-138.26 682.99,-141.22 679.66,-134.3 686.32,-143.01"/>
</g>
<!-- ling508.db.repository -->
<g id="node12" class="node">
<title>ling508.db.repository</title>
<polygon fill="none" stroke="black" points="732,-252 596.75,-252 596.75,-216 732,-216 732,-252"/>
<text text-anchor="middle" x="664.38" y="-228.57" font-family="Times New Roman,serif" font-size="14.00">ling508.db.repository</text>
</g>
<!-- ling508.app.stix_importer&#45;&gt;ling508.db.repository -->
<g id="edge6" class="edge">
<title>ling508.app.stix_importer&#45;&gt;ling508.db.repository</title>
<path fill="none" stroke="black" d="M678.82,-36.45C661.39,-44.37 644.63,-55.74 634.38,-72 608.26,-113.41 630.85,-171.95 648.44,-205.84"/>
<polygon fill="black" stroke="black" points="653.09,-214.45 644.38,-207.8 651.3,-211.13 648.34,-205.66 648.34,-205.66 648.34,-205.66 651.3,-211.13 652.29,-203.52 653.09,-214.45"/>
</g>
<!-- ling508.model.doc_manager -->
<g id="node14" class="node">
<title>ling508.model.doc_manager</title>
<polygon fill="none" stroke="black" points="828.12,-108 654.62,-108 654.62,-72 828.12,-72 828.12,-108"/>
<text text-anchor="middle" x="741.38" y="-84.58" font-family="Times New Roman,serif" font-size="14.00">ling508.model.doc_manager</text>
</g>
<!-- ling508.app.stix_importer&#45;&gt;ling508.model.doc_manager -->
<g id="edge7" class="edge">
<title>ling508.app.stix_importer&#45;&gt;ling508.model.doc_manager</title>
<path fill="none" stroke="black" d="M744.39,-36.3C743.96,-43.68 743.46,-52.48 742.99,-60.75"/>
<polygon fill="black" stroke="black" points="742.42,-70.68 738.5,-60.44 742.64,-66.9 742.99,-60.7 742.99,-60.7 742.99,-60.7 742.64,-66.9 747.49,-60.95 742.42,-70.68"/>
</g>
<!-- ling508.db -->
<g id="node10" class="node">
<title>ling508.db</title>
<polygon fill="none" stroke="black" points="2504.62,-36 2430.12,-36 2430.12,0 2504.62,0 2504.62,-36"/>
<text text-anchor="middle" x="2467.38" y="-12.57" font-family="Times New Roman,serif" font-size="14.00">ling508.db</text>
</g>
<!-- ling508.db.mysql_repository&#45;&gt;ling508.db.repository -->
<g id="edge8" class="edge">
<title>ling508.db.mysql_repository&#45;&gt;ling508.db.repository</title>
<path fill="none" stroke="black" d="M722.34,-180.3C713.09,-188.72 701.79,-198.98 691.64,-208.21"/>
<polygon fill="black" stroke="black" points="684.36,-214.83 688.73,-204.78 687.16,-212.29 691.76,-208.11 691.76,-208.11 691.76,-208.11 687.16,-212.29 694.78,-211.44 684.36,-214.83"/>
</g>
<!-- ling508.model -->
<g id="node13" class="node">
<title>ling508.model</title>
<polygon fill="none" stroke="black" points="2616.38,-36 2522.38,-36 2522.38,0 2616.38,0 2616.38,-36"/>
<text text-anchor="middle" x="2569.38" y="-12.57" font-family="Times New Roman,serif" font-size="14.00">ling508.model</text>
</g>
<!-- ling508.model.doc_manager&#45;&gt;ling508.db.mysql_repository -->
<g id="edge9" class="edge">
<title>ling508.model.doc_manager&#45;&gt;ling508.db.mysql_repository</title>
<path fill="none" stroke="black" d="M741.38,-108.3C741.38,-115.68 741.38,-124.48 741.38,-132.75"/>
<polygon fill="black" stroke="black" points="741.38,-142.68 736.88,-132.68 741.38,-138.9 741.38,-132.68 741.38,-132.68 741.38,-132.68 741.38,-138.9 745.88,-132.68 741.38,-142.68"/>
</g>
<!-- ling508.model.nlp_manager -->
<g id="node16" class="node">
<title>ling508.model.nlp_manager</title>
<polygon fill="none" stroke="black" points="1464.88,-180 1295.88,-180 1295.88,-144 1464.88,-144 1464.88,-180"/>
<text text-anchor="middle" x="1380.38" y="-156.57" font-family="Times New Roman,serif" font-size="14.00">ling508.model.nlp_manager</text>
</g>
<!-- ling508.model.doc_manager&#45;&gt;ling508.model.nlp_manager -->
<g id="edge10" class="edge">
<title>ling508.model.doc_manager&#45;&gt;ling508.model.nlp_manager</title>
<path fill="none" stroke="black" d="M828.56,-102.34C844.14,-104.29 860.23,-106.25 875.38,-108 1017.6,-124.48 1182.62,-141.38 1284.27,-151.54"/>
<polygon fill="black" stroke="black" points="1294.22,-152.53 1283.82,-156.02 1290.45,-152.15 1284.27,-151.54 1284.27,-151.54 1284.27,-151.54 1290.45,-152.15 1284.71,-147.06 1294.22,-152.53"/>
</g>
<!-- ling508.model.lexicon_manager -->
<g id="node15" class="node">
<title>ling508.model.lexicon_manager</title>
<polygon fill="none" stroke="black" points="1352.12,-108 1160.62,-108 1160.62,-72 1352.12,-72 1352.12,-108"/>
<text text-anchor="middle" x="1256.38" y="-84.58" font-family="Times New Roman,serif" font-size="14.00">ling508.model.lexicon_manager</text>
</g>
<!-- ling508.model.lexicon_manager&#45;&gt;ling508.db.mysql_repository -->
<g id="edge11" class="edge">
<title>ling508.model.lexicon_manager&#45;&gt;ling508.db.mysql_repository</title>
<path fill="none" stroke="black" d="M1160.41,-105.97C1155.66,-106.66 1150.97,-107.34 1146.38,-108 1042.35,-122.84 923.05,-138.26 841.01,-148.62"/>
<polygon fill="black" stroke="black" points="831.15,-149.86 840.51,-144.14 834.9,-149.39 841.07,-148.61 841.07,-148.61 841.07,-148.61 834.9,-149.39 841.63,-153.07 831.15,-149.86"/>
</g>
<!-- ling508.model.lexicon_manager&#45;&gt;ling508.model.nlp_manager -->
<g id="edge12" class="edge">
<title>ling508.model.lexicon_manager&#45;&gt;ling508.model.nlp_manager</title>
<path fill="none" stroke="black" d="M1287.35,-108.48C1303.3,-117.49 1322.94,-128.58 1340.06,-138.24"/>
<polygon fill="black" stroke="black" points="1348.74,-143.14 1337.82,-142.14 1345.45,-141.28 1340.03,-138.22 1340.03,-138.22 1340.03,-138.22 1345.45,-141.28 1342.24,-134.31 1348.74,-143.14"/>
</g>
<!-- ling508.model.sent_manager -->
<g id="node17" class="node">
<title>ling508.model.sent_manager</title>
<polygon fill="none" stroke="black" points="1620.5,-108 1446.25,-108 1446.25,-72 1620.5,-72 1620.5,-108"/>
<text text-anchor="middle" x="1533.38" y="-84.58" font-family="Times New Roman,serif" font-size="14.00">ling508.model.sent_manager</text>
</g>
<!-- ling508.model.sent_manager&#45;&gt;ling508.db.mysql_repository -->
<g id="edge13" class="edge">
<title>ling508.model.sent_manager&#45;&gt;ling508.db.mysql_repository</title>
<path fill="none" stroke="black" d="M1445.85,-106.23C1441.3,-106.86 1436.79,-107.46 1432.38,-108 1222.7,-133.63 975.62,-149.04 841.06,-156.18"/>
<polygon fill="black" stroke="black" points="831.2,-156.7 840.95,-151.68 834.97,-156.5 841.18,-156.18 841.18,-156.18 841.18,-156.18 834.97,-156.5 841.42,-160.67 831.2,-156.7"/>
</g>
<!-- ling508.model.sent_manager&#45;&gt;ling508.model.nlp_manager -->
<g id="edge14" class="edge">
<title>ling508.model.sent_manager&#45;&gt;ling508.model.nlp_manager</title>
<path fill="none" stroke="black" d="M1495.16,-108.48C1474.91,-117.75 1449.84,-129.22 1428.3,-139.07"/>
<polygon fill="black" stroke="black" points="1419.47,-143.11 1426.7,-134.86 1422.91,-141.54 1428.57,-138.95 1428.57,-138.95 1428.57,-138.95 1422.91,-141.54 1430.44,-143.04 1419.47,-143.11"/>
</g>
<!-- ling508.tests -->
<g id="node18" class="node">
<title>ling508.tests</title>
<polygon fill="none" stroke="black" points="2719.88,-36 2634.88,-36 2634.88,0 2719.88,0 2719.88,-36"/>
<text text-anchor="middle" x="2677.38" y="-12.57" font-family="Times New Roman,serif" font-size="14.00">ling508.tests</text>
</g>
<!-- ling508.tests.test_clex_importer -->
<g id="node19" class="node">
<title>ling508.tests.test_clex_importer</title>
<polygon fill="none" stroke="black" points="410.88,-36 217.88,-36 217.88,0 410.88,0 410.88,-36"/>
<text text-anchor="middle" x="314.38" y="-12.57" font-family="Times New Roman,serif" font-size="14.00">ling508.tests.test_clex_importer</text>
</g>
<!-- ling508.tests.test_clex_importer&#45;&gt;ling508.app.clex_importer -->
<g id="edge15" class="edge">
<title>ling508.tests.test_clex_importer&#45;&gt;ling508.app.clex_importer</title>
<path fill="none" stroke="black" d="M319.07,-36.3C321.12,-43.85 323.57,-52.88 325.86,-61.32"/>
<polygon fill="black" stroke="black" points="328.41,-70.72 321.45,-62.25 327.42,-67.07 325.79,-61.07 325.79,-61.07 325.79,-61.07 327.42,-67.07 330.14,-59.89 328.41,-70.72"/>
</g>
<!-- ling508.tests.test_clex_importer&#45;&gt;ling508.db.mysql_repository -->
<g id="edge16" class="edge">
<title>ling508.tests.test_clex_importer&#45;&gt;ling508.db.mysql_repository</title>
<path fill="none" stroke="black" d="M366.73,-36.41C445.43,-62.58 593.97,-111.98 678.45,-140.07"/>
<polygon fill="black" stroke="black" points="687.77,-143.17 676.86,-144.29 684.18,-141.98 678.28,-140.02 678.28,-140.02 678.28,-140.02 684.18,-141.98 679.7,-135.75 687.77,-143.17"/>
</g>
<!-- ling508.tests.test_clex_importer_live -->
<g id="node20" class="node">
<title>ling508.tests.test_clex_importer_live</title>
<polygon fill="none" stroke="black" points="648,-36 428.75,-36 428.75,0 648,0 648,-36"/>
<text text-anchor="middle" x="538.38" y="-12.57" font-family="Times New Roman,serif" font-size="14.00">ling508.tests.test_clex_importer_live</text>
</g>
<!-- ling508.tests.test_clex_importer_live&#45;&gt;ling508.app.clex_importer -->
<g id="edge17" class="edge">
<title>ling508.tests.test_clex_importer_live&#45;&gt;ling508.app.clex_importer</title>
<path fill="none" stroke="black" d="M487.17,-36.48C459.18,-46.04 424.32,-57.95 394.86,-68"/>
<polygon fill="black" stroke="black" points="385.43,-71.22 393.44,-63.73 389.01,-70 394.9,-67.99 394.9,-67.99 394.9,-67.99 389.01,-70 396.35,-72.25 385.43,-71.22"/>
</g>
<!-- ling508.tests.test_clex_importer_live&#45;&gt;ling508.db.mysql_repository -->
<g id="edge18" class="edge">
<title>ling508.tests.test_clex_importer_live&#45;&gt;ling508.db.mysql_repository</title>
<path fill="none" stroke="black" d="M554.11,-36.32C572.17,-55.52 603.32,-86.58 634.38,-108 651.29,-119.66 671.14,-130.24 689.12,-138.82"/>
<polygon fill="black" stroke="black" points="698.07,-142.99 687.1,-142.85 694.64,-141.39 689.01,-138.77 689.01,-138.77 689.01,-138.77 694.64,-141.39 690.91,-134.69 698.07,-142.99"/>
</g>
<!-- ling508.tests.test_doc_manager -->
<g id="node21" class="node">
<title>ling508.tests.test_doc_manager</title>
<polygon fill="none" stroke="black" points="1034.12,-36 842.62,-36 842.62,0 1034.12,0 1034.12,-36"/>
<text text-anchor="middle" x="938.38" y="-12.57" font-family="Times New Roman,serif" font-size="14.00">ling508.tests.test_doc_manager</text>
</g>
<!-- ling508.tests.test_doc_manager&#45;&gt;ling508.db.mysql_repository -->
<g id="edge19" class="edge">
<title>ling508.tests.test_doc_manager&#45;&gt;ling508.db.mysql_repository</title>
<path fill="none" stroke="black" d="M917.11,-36.36C904.77,-46.56 889.02,-59.81 875.38,-72 858.02,-87.5 856.15,-94.27 837.38,-108 821.98,-119.26 803.92,-129.83 787.66,-138.52"/>
<polygon fill="black" stroke="black" points="778.88,-143.11 785.65,-134.49 782.23,-141.36 787.74,-138.47 787.74,-138.47 787.74,-138.47 782.23,-141.36 789.82,-142.46 778.88,-143.11"/>
</g>
<!-- ling508.tests.test_doc_manager&#45;&gt;ling508.model.doc_manager -->
<g id="edge20" class="edge">
<title>ling508.tests.test_doc_manager&#45;&gt;ling508.model.doc_manager</title>
<path fill="none" stroke="black" d="M889.17,-36.48C862.39,-46 829.06,-57.84 800.84,-67.87"/>
<polygon fill="black" stroke="black" points="791.44,-71.21 799.36,-63.62 795,-69.94 800.86,-67.86 800.86,-67.86 800.86,-67.86 795,-69.94 802.37,-72.1 791.44,-71.21"/>
</g>
<!-- ling508.tests.test_doc_manager&#45;&gt;ling508.model.nlp_manager -->
<g id="edge21" class="edge">
<title>ling508.tests.test_doc_manager&#45;&gt;ling508.model.nlp_manager</title>
<path fill="none" stroke="black" d="M985.96,-36.43C1012.47,-46.38 1045.97,-59.37 1075.38,-72 1109.72,-86.75 1116.08,-95.72 1151.38,-108 1194.18,-122.9 1242.95,-134.85 1284.46,-143.6"/>
<polygon fill="black" stroke="black" points="1294.2,-145.62 1283.5,-148 1290.5,-144.85 1284.41,-143.59 1284.41,-143.59 1284.41,-143.59 1290.5,-144.85 1285.33,-139.18 1294.2,-145.62"/>
</g>
<!-- ling508.tests.test_doc_scrapper -->
<g id="node22" class="node">
<title>ling508.tests.test_doc_scrapper</title>
<polygon fill="none" stroke="black" points="2060.25,-36 1866.5,-36 1866.5,0 2060.25,0 2060.25,-36"/>
<text text-anchor="middle" x="1963.38" y="-12.57" font-family="Times New Roman,serif" font-size="14.00">ling508.tests.test_doc_scrapper</text>
</g>
<!-- ling508.tests.test_doc_scrapper&#45;&gt;ling508.app.doc_scrapper -->
<g id="edge22" class="edge">
<title>ling508.tests.test_doc_scrapper&#45;&gt;ling508.app.doc_scrapper</title>
<path fill="none" stroke="black" d="M1963.38,-36.3C1963.38,-43.68 1963.38,-52.48 1963.38,-60.75"/>
<polygon fill="black" stroke="black" points="1963.38,-70.68 1958.88,-60.68 1963.38,-66.9 1963.38,-60.68 1963.38,-60.68 1963.38,-60.68 1963.38,-66.9 1967.88,-60.68 1963.38,-70.68"/>
</g>
<!-- ling508.tests.test_gen_clex_uuid -->
<g id="node23" class="node">
<title>ling508.tests.test_gen_clex_uuid</title>
<polygon fill="none" stroke="black" points="196.75,-108 0,-108 0,-72 196.75,-72 196.75,-108"/>
<text text-anchor="middle" x="98.38" y="-84.58" font-family="Times New Roman,serif" font-size="14.00">ling508.tests.test_gen_clex_uuid</text>
</g>
<!-- ling508.tests.test_gen_clex_uuid&#45;&gt;ling508.app.gen_clex_uuid -->
<g id="edge23" class="edge">
<title>ling508.tests.test_gen_clex_uuid&#45;&gt;ling508.app.gen_clex_uuid</title>
<path fill="none" stroke="black" d="M127.85,-108.48C143.03,-117.49 161.72,-128.58 178.01,-138.24"/>
<polygon fill="black" stroke="black" points="186.23,-143.12 175.33,-141.89 182.98,-141.19 177.63,-138.02 177.63,-138.02 177.63,-138.02 182.98,-141.19 179.93,-134.15 186.23,-143.12"/>
</g>
<!-- ling508.tests.test_lexicon_manager -->
<g id="node24" class="node">
<title>ling508.tests.test_lexicon_manager</title>
<polygon fill="none" stroke="black" points="1361.12,-36 1151.62,-36 1151.62,0 1361.12,0 1361.12,-36"/>
<text text-anchor="middle" x="1256.38" y="-12.57" font-family="Times New Roman,serif" font-size="14.00">ling508.tests.test_lexicon_manager</text>
</g>
<!-- ling508.tests.test_lexicon_manager&#45;&gt;ling508.db.mysql_repository -->
<g id="edge24" class="edge">
<title>ling508.tests.test_lexicon_manager&#45;&gt;ling508.db.mysql_repository</title>
<path fill="none" stroke="black" d="M1221.65,-36.41C1171.25,-61.62 1082.97,-105.59 1075.38,-108 998.64,-132.34 908.29,-145.81 840.92,-153.08"/>
<polygon fill="black" stroke="black" points="831.1,-154.1 840.58,-148.59 834.86,-153.71 841.04,-153.06 841.04,-153.06 841.04,-153.06 834.86,-153.71 841.51,-157.54 831.1,-154.1"/>
</g>
<!-- ling508.tests.test_lexicon_manager&#45;&gt;ling508.model.lexicon_manager -->
<g id="edge25" class="edge">
<title>ling508.tests.test_lexicon_manager&#45;&gt;ling508.model.lexicon_manager</title>
<path fill="none" stroke="black" d="M1256.38,-36.3C1256.38,-43.68 1256.38,-52.48 1256.38,-60.75"/>
<polygon fill="black" stroke="black" points="1256.38,-70.68 1251.88,-60.68 1256.38,-66.9 1256.38,-60.68 1256.38,-60.68 1256.38,-60.68 1256.38,-66.9 1260.88,-60.68 1256.38,-70.68"/>
</g>
<!-- ling508.tests.test_lexicon_manager&#45;&gt;ling508.model.nlp_manager -->
<g id="edge26" class="edge">
<title>ling508.tests.test_lexicon_manager&#45;&gt;ling508.model.nlp_manager</title>
<path fill="none" stroke="black" d="M1312.76,-36.41C1330.72,-44.55 1349.09,-56.07 1361.38,-72 1374.72,-89.3 1379.19,-113.89 1380.48,-132.83"/>
<polygon fill="black" stroke="black" points="1380.87,-142.57 1375.97,-132.76 1380.72,-138.79 1380.47,-132.58 1380.47,-132.58 1380.47,-132.58 1380.72,-138.79 1384.97,-132.39 1380.87,-142.57"/>
</g>
<!-- ling508.tests.test_mysql_repo -->
<g id="node25" class="node">
<title>ling508.tests.test_mysql_repo</title>
<polygon fill="none" stroke="black" points="1066.62,-108 884.12,-108 884.12,-72 1066.62,-72 1066.62,-108"/>
<text text-anchor="middle" x="975.38" y="-84.58" font-family="Times New Roman,serif" font-size="14.00">ling508.tests.test_mysql_repo</text>
</g>
<!-- ling508.tests.test_mysql_repo&#45;&gt;ling508.db.mysql_repository -->
<g id="edge27" class="edge">
<title>ling508.tests.test_mysql_repo&#45;&gt;ling508.db.mysql_repository</title>
<path fill="none" stroke="black" d="M916.93,-108.48C884.42,-118.21 843.78,-130.36 809.8,-140.53"/>
<polygon fill="black" stroke="black" points="800.65,-143.27 808.94,-136.09 804.27,-142.19 810.23,-140.4 810.23,-140.4 810.23,-140.4 804.27,-142.19 811.52,-144.71 800.65,-143.27"/>
</g>
<!-- ling508.tests.test_nlp_manager -->
<g id="node26" class="node">
<title>ling508.tests.test_nlp_manager</title>
<polygon fill="none" stroke="black" points="1825.88,-108 1638.88,-108 1638.88,-72 1825.88,-72 1825.88,-108"/>
<text text-anchor="middle" x="1732.38" y="-84.58" font-family="Times New Roman,serif" font-size="14.00">ling508.tests.test_nlp_manager</text>
</g>
<!-- ling508.tests.test_nlp_manager&#45;&gt;ling508.model.nlp_manager -->
<g id="edge28" class="edge">
<title>ling508.tests.test_nlp_manager&#45;&gt;ling508.model.nlp_manager</title>
<path fill="none" stroke="black" d="M1644.46,-108.48C1593.32,-118.65 1528.81,-131.48 1476.35,-141.91"/>
<polygon fill="black" stroke="black" points="1466.55,-143.86 1475.48,-137.5 1470.26,-143.13 1476.35,-141.91 1476.35,-141.91 1476.35,-141.91 1470.26,-143.13 1477.23,-146.33 1466.55,-143.86"/>
</g>
<!-- ling508.tests.test_sent_manager -->
<g id="node27" class="node">
<title>ling508.tests.test_sent_manager</title>
<polygon fill="none" stroke="black" points="1629.5,-36 1437.25,-36 1437.25,0 1629.5,0 1629.5,-36"/>
<text text-anchor="middle" x="1533.38" y="-12.57" font-family="Times New Roman,serif" font-size="14.00">ling508.tests.test_sent_manager</text>
</g>
<!-- ling508.tests.test_sent_manager&#45;&gt;ling508.db.mysql_repository -->
<g id="edge29" class="edge">
<title>ling508.tests.test_sent_manager&#45;&gt;ling508.db.mysql_repository</title>
<path fill="none" stroke="black" d="M1501.5,-36.35C1455.92,-61.03 1375.99,-103.78 1361.38,-108 1266.45,-135.44 990.63,-150.72 840.89,-157.22"/>
<polygon fill="black" stroke="black" points="831.11,-157.64 840.91,-152.71 834.89,-157.47 841.1,-157.21 841.1,-157.21 841.1,-157.21 834.89,-157.47 841.29,-161.7 831.11,-157.64"/>
</g>
<!-- ling508.tests.test_sent_manager&#45;&gt;ling508.model.nlp_manager -->
<g id="edge30" class="edge">
<title>ling508.tests.test_sent_manager&#45;&gt;ling508.model.nlp_manager</title>
<path fill="none" stroke="black" d="M1629.91,-29.72C1713.15,-39.95 1822.05,-56.13 1835.38,-72 1845.66,-84.25 1846.01,-96.05 1835.38,-108 1811.92,-134.35 1602.35,-149.64 1475.97,-156.54"/>
<polygon fill="black" stroke="black" points="1466.35,-157.05 1476.1,-152.02 1470.13,-156.85 1476.34,-156.52 1476.34,-156.52 1476.34,-156.52 1470.13,-156.85 1476.58,-161.01 1466.35,-157.05"/>
</g>
<!-- ling508.tests.test_sent_manager&#45;&gt;ling508.model.sent_manager -->
<g id="edge31" class="edge">
<title>ling508.tests.test_sent_manager&#45;&gt;ling508.model.sent_manager</title>
<path fill="none" stroke="black" d="M1533.38,-36.3C1533.38,-43.68 1533.38,-52.48 1533.38,-60.75"/>
<polygon fill="black" stroke="black" points="1533.38,-70.68 1528.88,-60.68 1533.38,-66.9 1533.38,-60.68 1533.38,-60.68 1533.38,-60.68 1533.38,-66.9 1537.88,-60.68 1533.38,-70.68"/>
</g>
</g>
</svg>
